<svg xmlns="http://www.w3.org/2000/svg" width="120" height="120" viewBox="0 0 100 100" role="img" aria-label="Cite-Konverter für Wikipedia Logo">
  <defs>
    <linearGradient id="bg" x1="0" y1="0" x2="1" y2="1">
      <stop offset="0" stop-color="#C250F2"/>
      <stop offset="1" stop-color="#D76CD9"/>
    </linearGradient>
  </defs>
  <rect x="4" y="4" width="92" height="92" rx="22" fill="url(#bg)"/>
  <g fill="none" stroke="#fff" stroke-width="7" stroke-linecap="round" stroke-linejoin="round">
    <path d="M44 20 C34 20 36 33 35 40 C34 47 30 50 24 50 C30 50 34 53 35 60 C36 67 34 80 44 80"/>
    <path d="M56 20 C66 20 64 33 65 40 C66 47 70 50 76 50 C70 50 66 53 65 60 C64 67 66 80 56 80"/>
  </g>
</svg>
